<?xml version="1.0" encoding="UTF-8" standalone="no"?> <svg id="Layer_1" data-name="Layer 1" xmlns="http://www.w3.org/2000/svg" viewBox="0 0 128 128"><defs><style>.cls-1{fill:#2d3e50;}</style></defs><title>n</title><path class="cls-1" d="M122.49081,90.475A388.16482,388.16482,0,0,1,72.54434,56.54108H66.86067v-6.8507a11.47338,11.47338,0,1,0-14.33244-11.112,2.86065,2.86065,0,0,0,5.7213,0,5.7511,5.7511,0,0,1,6.12265-5.739,5.75169,5.75169,0,0,1,.66457,11.397,4.72654,4.72654,0,0,0-3.89739,4.64328v7.66146H55.45566A388.16483,388.16483,0,0,1,5.50919,90.475a7.44393,7.44393,0,0,0-2.62545,10.41912L52.09594,72.646a23.91217,23.91217,0,0,1,23.8081,0l49.21222,28.24813A7.44393,7.44393,0,0,0,122.49081,90.475Z"/></svg>